<svg width="957" height="760" fill="none" xmlns="http://www.w3.org/2000/svg"><g clip-path="url(#a)"><path d="M951.457 451.296c15.666 116.589-5.666 233.304-114.169 278.753-108.502 45.449-233.304-5.666-278.753-114.169-45.449-108.502 61.785-173.424 114.169-278.753C779.08 123.234 902.808 89.231 951.457 451.296Z" fill="#585A5B"/><path d="M756.122 759.564c93.889 0 170-10.355 170-23.128 0-12.772-76.111-23.127-170-23.127-93.888 0-170 10.355-170 23.127 0 12.773 76.112 23.128 170 23.128Z" fill="#3F3D56"/><path d="m686.357 666.12-41.446 11.456 6.394 23.133 41.446-11.457-6.394-23.132Z" fill="#FF7676"/><path d="M647.767 704.799c3.993-1.103 4.844-10.629 1.901-21.275-2.943-10.646-8.566-18.382-12.558-17.279-3.992 1.104-4.843 10.629-1.9 21.276 2.943 10.646 8.565 18.382 12.557 17.278ZM775.728 598.016c2.931-21.617-.196-39.888-6.982-40.807-6.787-.92-14.663 15.859-17.593 37.476-2.93 21.618.196 39.888 6.982 40.808 6.787.92 14.663-15.859 17.593-37.477Z" fill="#FF7676"/><path d="M755.707 749.299c43.631 0 79-35.369 79-79 0-43.63-35.369-79-79-79-43.63 0-79 35.37-79 79 0 43.631 35.37 79 79 79Z" fill="#FF7676"/><path d="m686.357 652.12-41.446 11.456 6.394 23.133 41.446-11.457-6.394-23.132Z" fill="#FF7676"/><path d="M647.767 690.799c3.993-1.103 4.844-10.629 1.901-21.275-2.943-10.646-8.566-18.382-12.558-17.279-3.992 1.104-4.843 10.629-1.9 21.276 2.943 10.646 8.565 18.382 12.557 17.278Z" fill="#FF7676"/><path d="M776.451 652.043c14.912 0 27-12.088 27-27s-12.088-27-27-27c-14.911 0-27 12.088-27 27s12.089 27 27 27Z" fill="#fff"/><path d="M785.086 622.116a9 9 0 1 0-.001-18.001 9 9 0 0 0 .001 18.001Z" fill="#3F3D56"/><path d="M846.937 724.588c29.235-1.464 51.625-28.808 50.01-61.077-1.615-32.268-26.624-57.24-55.858-55.777-29.235 1.463-33.822 24.412-32.207 56.68 1.615 32.269 8.821 61.637 38.055 60.174Z" fill="#00BFA6"/><path d="M723.42 636.874a18 18 0 0 1-2.904-35.883c9.909-.802 12.611 7.065 13.413 16.973.802 9.909-.6 18.108-10.509 18.91Z" fill="#fff"/><path d="M801.726 506.71H675.597v64.161h126.129V506.71Z" fill="#00BFA6"/><path d="M746.077 616.788c2.93-21.618-.196-39.888-6.983-40.808-6.786-.92-14.663 15.859-17.593 37.476-2.93 21.618.196 39.888 6.982 40.808 6.787.92 14.664-15.859 17.594-37.476Z" fill="#FF7676"/><path d="M567.843 627.788a6.535 6.535 0 1 0 0-13.07 6.535 6.535 0 0 0 0 13.07Z" fill="#FF6584"/><path d="M842.891 356.264c-.102 0-.204-.016-.302-.047-264.407-83.618-497.444-72.684-646.38-48.786a1294.35 1294.35 0 0 0-60.403 11.161 1177.564 1177.564 0 0 0-15.597 3.378 1013.277 1013.277 0 0 0-18.532 4.306 604.931 604.931 0 0 0-7.595 1.848 986.58 986.58 0 0 0-11.66 2.957 930.8 930.8 0 0 0-13.848 3.687v.001a927.255 927.255 0 0 0-15.323 4.325 575.717 575.717 0 0 0-7.8 2.307 31.22 31.22 0 0 0-.776.227l-.536.163c-.31.095-.617.188-.924.276l-.02.005.001.001-.811.252c-.968.293-1.913.58-2.841.865-24.545 7.566-38.038 12.949-38.172 13.002a1.006 1.006 0 0 1-1.087-.23 1 1 0 0 1 .343-1.627c.135-.053 13.694-5.463 38.328-13.057.932-.287 1.879-.573 2.85-.867l.753-.234a.753.753 0 0 1 .079-.025c.305-.087.61-.18.919-.274l.537-.163c.268-.081.531-.161.801-.235a589.031 589.031 0 0 1 7.798-2.307 933.12 933.12 0 0 1 15.334-4.328c.016-.006.033-.01.049-.015v-.001a942.189 942.189 0 0 1 13.845-3.684 970.67 970.67 0 0 1 11.68-2.962c2.492-.62 5.028-1.238 7.609-1.853a1027.766 1027.766 0 0 1 18.563-4.312c5.3-1.184 10.556-2.322 15.622-3.383a1296.003 1296.003 0 0 1 60.497-11.179c149.149-23.931 382.521-34.884 647.3 48.855a1.002 1.002 0 0 1 .35 1.712 1.002 1.002 0 0 1-.651.241Z" fill="#FF7676"/><path d="M240.53 341.207c7.788-20.377 8.916-38.879 2.519-41.324-6.397-2.445-17.897 12.092-25.685 32.47-7.789 20.377-8.917 38.879-2.52 41.324 6.397 2.445 17.897-12.092 25.686-32.47Z" fill="#FF7676"/><path d="M246.934 313.711c7.558 0 13.685-6.127 13.685-13.686 0-7.558-6.127-13.685-13.685-13.685-7.558 0-13.686 6.127-13.686 13.685 0 7.559 6.128 13.686 13.686 13.686Z" fill="#00BFA6"/><path d="M436.698 227.197a15.754 15.754 0 1 1 6.029-30.312 15.75 15.75 0 0 1 5.107 25.691 15.776 15.776 0 0 1-11.136 4.621Zm0-29.512a13.757 13.757 0 0 0-9.727 23.483 13.764 13.764 0 0 0 14.991 2.981 13.754 13.754 0 0 0 8.491-12.708 13.768 13.768 0 0 0-13.755-13.756ZM546.698 407.197a15.754 15.754 0 1 1 6.029-30.312 15.75 15.75 0 0 1 5.107 25.691 15.776 15.776 0 0 1-11.136 4.621Zm0-29.512a13.757 13.757 0 0 0-9.727 23.483 13.764 13.764 0 0 0 14.991 2.981 13.754 13.754 0 0 0 8.491-12.708 13.768 13.768 0 0 0-13.755-13.756ZM311.698 495.197a15.754 15.754 0 1 1 6.029-30.312 15.751 15.751 0 0 1 9.726 14.556 15.772 15.772 0 0 1-15.755 15.756Zm0-29.511a13.757 13.757 0 0 0-13.491 16.439 13.758 13.758 0 0 0 10.808 10.807 13.749 13.749 0 0 0 12.405-23.213 13.77 13.77 0 0 0-9.722-4.033ZM192.122 759.564c93.889 0 170-10.355 170-23.128 0-12.772-76.111-23.127-170-23.127-93.888 0-170 10.355-170 23.127 0 12.773 76.112 23.128 170 23.128Z" fill="#3F3D56"/><path d="M182.927 702.436c43.63 0 79-35.369 79-79 0-43.63-35.37-79-79-79-43.631 0-79 35.37-79 79 0 43.631 35.369 79 79 79Z" fill="#FF7676"/><path d="M170.927 685.436h-24v43h24v-43ZM218.927 685.436h-24v43h24v-43Z" fill="#FF7676"/><path d="M166.927 736.436c11.046 0 20-3.357 20-7.5 0-4.142-8.954-7.5-20-7.5s-20 3.358-20 7.5c0 4.143 8.954 7.5 20 7.5ZM214.927 735.436c11.046 0 20-3.357 20-7.5 0-4.142-8.954-7.5-20-7.5s-20 3.358-20 7.5c0 4.143 8.954 7.5 20 7.5Z" fill="#FF7676"/><path d="M184.927 630.436c14.912 0 27-12.088 27-27 0-14.911-12.088-27-27-27s-27 12.089-27 27c0 14.912 12.088 27 27 27Z" fill="#fff"/><path d="M184.927 612.436a9 9 0 1 0 0-18 9 9 0 0 0 0 18Z" fill="#3F3D56"/><path d="M106.294 549.969c-6.379-28.568 14.012-57.434 45.544-64.475 31.532-7.041 62.265 10.41 68.644 38.978 6.379 28.567-14.518 39.103-46.05 46.144-31.533 7.041-61.759 7.92-68.138-20.647Z" fill="#00BFA6"/><path d="M155.927 475.436c43.63 0 79-35.369 79-79 0-43.63-35.37-79-79-79-43.631 0-79 35.37-79 79 0 43.631 35.369 79 79 79Z" fill="#FF7676"/><path d="M143.927 458.436h-24v43h24v-43ZM191.927 458.436h-24v43h24v-43Z" fill="#FF7676"/><path d="M139.927 509.436c11.046 0 20-3.357 20-7.5 0-4.142-8.954-7.5-20-7.5s-20 3.358-20 7.5c0 4.143 8.954 7.5 20 7.5ZM187.927 508.436c11.046 0 20-3.357 20-7.5 0-4.142-8.954-7.5-20-7.5s-20 3.358-20 7.5c0 4.143 8.954 7.5 20 7.5Z" fill="#FF7676"/><path d="M157.927 403.436c14.912 0 27-12.088 27-27 0-14.911-12.088-27-27-27s-27 12.089-27 27c0 14.912 12.088 27 27 27Z" fill="#fff"/><path d="M157.927 385.436a9 9 0 1 0 0-18 9 9 0 0 0 0 18Z" fill="#3F3D56"/><path d="M79.294 322.969c-6.379-28.568 14.012-57.434 45.544-64.475 31.532-7.041 62.265 10.41 68.644 38.978 6.379 28.567-14.518 39.103-46.05 46.144-31.533 7.041-61.759 7.92-68.138-20.647Z" fill="#00BFA6"/><path d="M102.636 376.707c2.935-6.188-10.665-18.782-30.376-28.131-19.71-9.348-38.068-11.911-41.003-5.723-2.934 6.188 10.665 18.783 30.376 28.131 19.71 9.349 38.068 11.911 41.003 5.723Z" fill="#FF7676"/><path d="M117.122 424.936c0 7.732 19.909 23 42 23 22.092 0 42.805-21.768 42.805-29.5 0-7.732-20.713 1.5-42.805 1.5-22.091 0-42-2.732-42 5Z" fill="#fff"/><path d="M776.174 268.47c43.631 0 79-35.369 79-79 0-43.63-35.369-79-79-79-43.63 0-79 35.37-79 79 0 43.631 35.37 79 79 79Z" fill="#FF7676"/><path d="m822.641 244.061-23.617 4.275 7.66 42.313 23.616-4.276-7.659-42.312ZM775.413 252.62l-23.616 4.276 7.659 42.312 23.616-4.275-7.659-42.313Z" fill="#FF7676"/><path d="M771.991 308.108c8.429-7.139 13.092-15.488 10.415-18.649-2.677-3.161-11.68.064-20.109 7.202-8.429 7.139-13.092 15.488-10.415 18.649 2.677 3.161 11.68-.064 20.109-7.202ZM818.239 299.736c8.429-7.139 13.092-15.488 10.415-18.649-2.677-3.161-11.68.064-20.109 7.202-8.429 7.139-13.092 15.488-10.415 18.649 2.677 3.161 11.68-.064 20.109-7.202Z" fill="#FF7676"/><path d="M770.644 197.146c14.912 0 27-12.088 27-27 0-14.911-12.088-27-27-27s-27 12.089-27 27c0 14.912 12.088 27 27 27Z" fill="#fff"/><path d="M759.547 169.468a9 9 0 1 0 0-18 9 9 0 0 0 0 18Z" fill="#3F3D56"/><path d="M838.494 103.527c1.188-29.248-24.018-54.02-56.3-55.331s-59.415 21.335-60.603 50.582c-1.188 29.247 21.252 35.892 53.534 37.203 32.282 1.312 62.181-3.207 63.369-32.454Z" fill="#00BFA6"/><path d="M741.73 183.903c1.531-6.676-14.467-16.038-35.731-20.912-21.263-4.874-39.741-3.414-41.272 3.261-1.53 6.676 14.468 16.038 35.731 20.912 21.264 4.874 39.742 3.414 41.272-3.261ZM896.804 209.691c1.53-6.675-14.467-16.038-35.731-20.912-21.263-4.874-39.742-3.413-41.272 3.262-1.53 6.675 14.468 16.038 35.731 20.912 21.264 4.874 39.742 3.414 41.272-3.262Z" fill="#FF7676"/><path d="M797.872 220.603a18.002 18.002 0 0 1-14.506 20.919 18.002 18.002 0 0 1-20.918-14.506c-1.771-9.782 5.792-13.244 15.574-15.015 9.782-1.771 18.079-1.18 19.85 8.602Z" fill="#fff"/><path d="m583.335 98.208-1.219 1.585 91 70 1.219-1.585-91-70Z" fill="#3F3D56"/><path d="M539.726 136c37.555 0 68-30.445 68-68s-30.445-68-68-68c-37.556 0-68 30.445-68 68s30.444 68 68 68Z" fill="#FF6584"/><path d="M90.934 726.711c7.558 0 13.685-6.127 13.685-13.686 0-7.558-6.127-13.685-13.685-13.685-7.558 0-13.686 6.127-13.686 13.685 0 7.559 6.128 13.686 13.686 13.686Z" fill="#00BFA6"/><path d="M314.726 697h-36v36h36v-36Z" fill="#FF6584"/><path d="M278.934 734.711c7.558 0 13.685-6.127 13.685-13.686 0-7.558-6.127-13.685-13.685-13.685-7.558 0-13.686 6.127-13.686 13.685 0 7.559 6.128 13.686 13.686 13.686Z" fill="#00BFA6"/></g><defs><clipPath id="a"><path fill="#fff" d="M0 0h956.036v759.564H0z"/></clipPath></defs></svg>